<svg xmlns="http://www.w3.org/2000/svg" xmlns:xlink="http://www.w3.org/1999/xlink" width="500" zoomAndPan="magnify" viewBox="0 0 375 374.999991" height="500" preserveAspectRatio="xMidYMid meet" version="1.0"><defs><g/><clipPath id="5373dc153d"><path d="M 245.90625 183.292969 L 268.320312 183.292969 L 268.320312 206.390625 L 245.90625 206.390625 Z M 245.90625 183.292969 " clip-rule="nonzero"/></clipPath><clipPath id="6656314285"><path d="M 245 184 L 266 184 L 266 215 L 245 215 Z M 245 184 " clip-rule="nonzero"/></clipPath><clipPath id="54b1415fa5"><path d="M 244.785156 210.261719 L 253.707031 182.3125 L 268.132812 186.917969 L 259.210938 214.867188 Z M 244.785156 210.261719 " clip-rule="nonzero"/></clipPath><clipPath id="b717c44eb7"><path d="M 251.203125 190.355469 L 245.300781 208.851562 C 245.046875 209.640625 245.484375 210.484375 246.273438 210.738281 L 257.78125 214.410156 C 258.570312 214.664062 259.414062 214.226562 259.667969 213.4375 L 265.570312 194.941406 C 265.863281 194.027344 265.78125 193.03125 265.339844 192.179688 L 261.824219 185.367188 C 261.445312 184.632812 260.539062 184.34375 259.804688 184.722656 L 252.992188 188.238281 C 252.140625 188.679688 251.496094 189.441406 251.203125 190.355469 Z M 251.203125 190.355469 " clip-rule="nonzero"/></clipPath><clipPath id="944a4e25a1"><path d="M 257 187 L 262 187 L 262 192 L 257 192 Z M 257 187 " clip-rule="nonzero"/></clipPath><clipPath id="daa798a768"><path d="M 257.917969 187.214844 L 261.917969 188.492188 L 260.640625 192.496094 L 256.640625 191.21875 Z M 257.917969 187.214844 " clip-rule="nonzero"/></clipPath><clipPath id="b09138feae"><path d="M 259.917969 187.855469 C 258.8125 187.503906 257.632812 188.113281 257.28125 189.21875 C 256.925781 190.320312 257.535156 191.503906 258.640625 191.855469 C 259.746094 192.207031 260.929688 191.597656 261.28125 190.496094 C 261.632812 189.390625 261.023438 188.207031 259.917969 187.855469 Z M 259.917969 187.855469 " clip-rule="nonzero"/></clipPath></defs><g fill="#ffffff" fill-opacity="1"><g transform="translate(83.971189, 205.842809)"><g><path d="M 22.34375 -1.125 C 21.519531 -0.613281 20.515625 -0.222656 19.328125 0.046875 C 18.148438 0.328125 16.894531 0.46875 15.5625 0.46875 C 11.9375 0.46875 9.144531 -0.421875 7.1875 -2.203125 C 5.238281 -3.984375 4.265625 -6.640625 4.265625 -10.171875 L 4.265625 -19.515625 L 0.203125 -19.515625 L 0.203125 -26.8125 L 4.265625 -26.8125 L 4.265625 -34.046875 L 14.015625 -34.046875 L 14.015625 -26.8125 L 20.390625 -26.8125 L 20.390625 -19.515625 L 14.015625 -19.515625 L 14.015625 -10.265625 C 14.015625 -9.273438 14.28125 -8.5 14.8125 -7.9375 C 15.34375 -7.375 16.054688 -7.09375 16.953125 -7.09375 C 18.078125 -7.09375 19.066406 -7.378906 19.921875 -7.953125 Z M 22.34375 -1.125 "/></g></g></g><g fill="#ffffff" fill-opacity="1"><g transform="translate(103.025721, 205.842809)"><g><path d="M 32.40625 -27.84375 L 32.40625 0 L 23.109375 0 L 23.109375 -2.984375 C 22.085938 -1.847656 20.851562 -0.988281 19.40625 -0.40625 C 17.96875 0.175781 16.445312 0.46875 14.84375 0.46875 C 11.25 0.46875 8.378906 -0.59375 6.234375 -2.71875 C 4.097656 -4.84375 3.03125 -8.03125 3.03125 -12.28125 L 3.03125 -27.84375 L 12.78125 -27.84375 L 12.78125 -13.859375 C 12.78125 -11.773438 13.175781 -10.253906 13.96875 -9.296875 C 14.757812 -8.335938 15.90625 -7.859375 17.40625 -7.859375 C 18.945312 -7.859375 20.207031 -8.394531 21.1875 -9.46875 C 22.164062 -10.550781 22.65625 -12.207031 22.65625 -14.4375 L 22.65625 -27.84375 Z M 32.40625 -27.84375 "/></g></g></g><g fill="#ffffff" fill-opacity="1"><g transform="translate(134.663448, 205.842809)"><g><path d="M 22.34375 -1.125 C 21.519531 -0.613281 20.515625 -0.222656 19.328125 0.046875 C 18.148438 0.328125 16.894531 0.46875 15.5625 0.46875 C 11.9375 0.46875 9.144531 -0.421875 7.1875 -2.203125 C 5.238281 -3.984375 4.265625 -6.640625 4.265625 -10.171875 L 4.265625 -19.515625 L 0.203125 -19.515625 L 0.203125 -26.8125 L 4.265625 -26.8125 L 4.265625 -34.046875 L 14.015625 -34.046875 L 14.015625 -26.8125 L 20.390625 -26.8125 L 20.390625 -19.515625 L 14.015625 -19.515625 L 14.015625 -10.265625 C 14.015625 -9.273438 14.28125 -8.5 14.8125 -7.9375 C 15.34375 -7.375 16.054688 -7.09375 16.953125 -7.09375 C 18.078125 -7.09375 19.066406 -7.378906 19.921875 -7.953125 Z M 22.34375 -1.125 "/></g></g></g><g fill="#ffffff" fill-opacity="1"><g transform="translate(153.717982, 205.842809)"><g><path d="M 3.140625 -27.84375 L 12.890625 -27.84375 L 12.890625 0 L 3.140625 0 Z M 8.015625 -30.921875 C 6.234375 -30.921875 4.796875 -31.414062 3.703125 -32.40625 C 2.609375 -33.394531 2.0625 -34.628906 2.0625 -36.109375 C 2.0625 -37.578125 2.609375 -38.804688 3.703125 -39.796875 C 4.796875 -40.796875 6.234375 -41.296875 8.015625 -41.296875 C 9.796875 -41.296875 11.234375 -40.820312 12.328125 -39.875 C 13.421875 -38.9375 13.96875 -37.734375 13.96875 -36.265625 C 13.96875 -34.722656 13.421875 -33.445312 12.328125 -32.4375 C 11.234375 -31.425781 9.796875 -30.921875 8.015625 -30.921875 Z M 8.015625 -30.921875 "/></g></g></g><g fill="#ffffff" fill-opacity="1"><g transform="translate(165.890281, 205.842809)"><g><path d="M 31.59375 -13.859375 C 31.59375 -13.796875 31.539062 -12.992188 31.4375 -11.453125 L 11.203125 -11.453125 C 11.609375 -10.015625 12.398438 -8.910156 13.578125 -8.140625 C 14.765625 -7.367188 16.25 -6.984375 18.03125 -6.984375 C 19.363281 -6.984375 20.515625 -7.171875 21.484375 -7.546875 C 22.460938 -7.921875 23.453125 -8.539062 24.453125 -9.40625 L 29.578125 -4.0625 C 26.878906 -1.039062 22.925781 0.46875 17.71875 0.46875 C 14.46875 0.46875 11.609375 -0.144531 9.140625 -1.375 C 6.671875 -2.613281 4.757812 -4.328125 3.40625 -6.515625 C 2.0625 -8.710938 1.390625 -11.195312 1.390625 -13.96875 C 1.390625 -16.707031 2.046875 -19.160156 3.359375 -21.328125 C 4.679688 -23.503906 6.503906 -25.207031 8.828125 -26.4375 C 11.160156 -27.675781 13.78125 -28.296875 16.6875 -28.296875 C 19.46875 -28.296875 21.984375 -27.722656 24.234375 -26.578125 C 26.492188 -25.429688 28.285156 -23.769531 29.609375 -21.59375 C 30.929688 -19.414062 31.59375 -16.835938 31.59375 -13.859375 Z M 16.75 -21.359375 C 15.238281 -21.359375 13.976562 -20.929688 12.96875 -20.078125 C 11.957031 -19.222656 11.316406 -18.0625 11.046875 -16.59375 L 22.4375 -16.59375 C 22.164062 -18.0625 21.523438 -19.222656 20.515625 -20.078125 C 19.503906 -20.929688 18.25 -21.359375 16.75 -21.359375 Z M 16.75 -21.359375 "/></g></g></g><g fill="#ffffff" fill-opacity="1"><g transform="translate(194.960006, 205.842809)"><g><path d="M 21.265625 -28.296875 C 24.722656 -28.296875 27.503906 -27.269531 29.609375 -25.21875 C 31.710938 -23.164062 32.765625 -20.066406 32.765625 -15.921875 L 32.765625 0 L 23.015625 0 L 23.015625 -14.328125 C 23.015625 -18.128906 21.488281 -20.03125 18.4375 -20.03125 C 16.757812 -20.03125 15.414062 -19.484375 14.40625 -18.390625 C 13.394531 -17.296875 12.890625 -15.648438 12.890625 -13.453125 L 12.890625 0 L 3.140625 0 L 3.140625 -27.84375 L 12.421875 -27.84375 L 12.421875 -24.8125 C 13.523438 -25.9375 14.828125 -26.796875 16.328125 -27.390625 C 17.835938 -27.992188 19.484375 -28.296875 21.265625 -28.296875 Z M 21.265625 -28.296875 "/></g></g></g><g fill="#ffffff" fill-opacity="1"><g transform="translate(226.803169, 205.842809)"><g><path d="M 32.71875 -38.109375 L 32.71875 0 L 23.421875 0 L 23.421875 -2.765625 C 21.609375 -0.609375 18.882812 0.46875 15.25 0.46875 C 12.71875 0.46875 10.40625 -0.117188 8.3125 -1.296875 C 6.226562 -2.484375 4.578125 -4.171875 3.359375 -6.359375 C 2.148438 -8.554688 1.546875 -11.09375 1.546875 -13.96875 C 1.546875 -16.84375 2.148438 -19.367188 3.359375 -21.546875 C 4.578125 -23.722656 6.226562 -25.390625 8.3125 -26.546875 C 10.40625 -27.710938 12.71875 -28.296875 15.25 -28.296875 C 18.570312 -28.296875 21.140625 -27.335938 22.953125 -25.421875 L 22.953125 -38.109375 Z M 17.3125 -7.296875 C 18.988281 -7.296875 20.375 -7.882812 21.46875 -9.0625 C 22.5625 -10.25 23.109375 -11.882812 23.109375 -13.96875 C 23.109375 -16.019531 22.566406 -17.628906 21.484375 -18.796875 C 20.410156 -19.960938 19.019531 -20.546875 17.3125 -20.546875 C 15.59375 -20.546875 14.1875 -19.960938 13.09375 -18.796875 C 12 -17.628906 11.453125 -16.019531 11.453125 -13.96875 C 11.453125 -11.882812 12 -10.25 13.09375 -9.0625 C 14.1875 -7.882812 15.59375 -7.296875 17.3125 -7.296875 Z M 17.3125 -7.296875 "/></g></g></g><g fill="#ffffff" fill-opacity="1"><g transform="translate(258.74906, 205.842809)"><g><path d="M 15 -28.296875 C 19.625 -28.296875 23.148438 -27.242188 25.578125 -25.140625 C 28.003906 -23.035156 29.21875 -19.804688 29.21875 -15.453125 L 29.21875 0 L 20.140625 0 L 20.140625 -3.59375 C 18.734375 -0.882812 15.992188 0.46875 11.921875 0.46875 C 9.765625 0.46875 7.894531 0.09375 6.3125 -0.65625 C 4.738281 -1.414062 3.550781 -2.4375 2.75 -3.71875 C 1.945312 -5.007812 1.546875 -6.472656 1.546875 -8.109375 C 1.546875 -10.742188 2.550781 -12.789062 4.5625 -14.25 C 6.582031 -15.707031 9.703125 -16.4375 13.921875 -16.4375 L 19.46875 -16.4375 C 19.289062 -19.382812 17.320312 -20.859375 13.5625 -20.859375 C 12.226562 -20.859375 10.875 -20.640625 9.5 -20.203125 C 8.132812 -19.773438 6.972656 -19.1875 6.015625 -18.4375 L 2.71875 -25.0625 C 4.257812 -26.09375 6.132812 -26.890625 8.34375 -27.453125 C 10.550781 -28.015625 12.769531 -28.296875 15 -28.296875 Z M 14.640625 -5.703125 C 15.765625 -5.703125 16.753906 -5.972656 17.609375 -6.515625 C 18.472656 -7.066406 19.09375 -7.875 19.46875 -8.9375 L 19.46875 -11.34375 L 15.25 -11.34375 C 12.40625 -11.34375 10.984375 -10.40625 10.984375 -8.53125 C 10.984375 -7.664062 11.304688 -6.976562 11.953125 -6.46875 C 12.609375 -5.957031 13.503906 -5.703125 14.640625 -5.703125 Z M 14.640625 -5.703125 "/></g></g></g><g fill="#ffffff" fill-opacity="1"><g transform="translate(291.264185, 180.118992)"><g><path d="M 2.5625 -6.34375 L 0.046875 -6.34375 L 0.046875 -8.1875 L 7.375 -8.1875 L 7.375 -6.34375 L 4.875 -6.34375 L 4.875 0 L 2.5625 0 Z M 2.5625 -6.34375 "/></g></g></g><g fill="#ffffff" fill-opacity="1"><g transform="translate(298.683217, 180.118992)"><g><path d="M 8.203125 0 L 8.1875 -4.34375 L 6.078125 -0.8125 L 5.046875 -0.8125 L 2.953125 -4.21875 L 2.953125 0 L 0.8125 0 L 0.8125 -8.1875 L 2.71875 -8.1875 L 5.59375 -3.453125 L 8.40625 -8.1875 L 10.3125 -8.1875 L 10.328125 0 Z M 8.203125 0 "/></g></g></g><g clip-path="url(#5373dc153d)"><path fill="#ffffff" d="M 245.90625 183.292969 L 268.320312 183.292969 L 268.320312 206.410156 L 245.90625 206.410156 Z M 245.90625 183.292969 " fill-opacity="1" fill-rule="nonzero"/></g><g clip-path="url(#6656314285)"><g clip-path="url(#54b1415fa5)"><g clip-path="url(#b717c44eb7)"><path fill="#000000" d="M 244.84375 210.28125 L 253.945312 181.769531 L 268.3125 186.355469 L 259.210938 214.867188 Z M 244.84375 210.28125 " fill-opacity="1" fill-rule="nonzero"/></g></g></g><g clip-path="url(#944a4e25a1)"><g clip-path="url(#daa798a768)"><g clip-path="url(#b09138feae)"><path fill="#ffffff" d="M 257.917969 187.214844 L 261.917969 188.492188 L 260.640625 192.496094 L 256.640625 191.21875 Z M 257.917969 187.214844 " fill-opacity="1" fill-rule="nonzero"/></g></g></g></svg>