<svg xmlns="http://www.w3.org/2000/svg" xmlns:xlink="http://www.w3.org/1999/xlink" width="500" zoomAndPan="magnify" viewBox="0 0 375 88.499997" height="118" preserveAspectRatio="xMidYMid meet" version="1.0"><defs><g/><clipPath id="6b61426b9d"><path d="M 296.277344 36.097656 L 337.011719 36.097656 L 337.011719 77.882812 L 296.277344 77.882812 Z M 296.277344 36.097656 " clip-rule="nonzero"/></clipPath><clipPath id="ca7a734ef0"><path d="M 294 37 L 333 37 L 333 88.003906 L 294 88.003906 Z M 294 37 " clip-rule="nonzero"/></clipPath><clipPath id="53cd4b2802"><path d="M 294.242188 84.851562 L 310.535156 33.804688 L 336.828125 42.195312 L 320.535156 93.246094 Z M 294.242188 84.851562 " clip-rule="nonzero"/></clipPath><clipPath id="2dde5b7857"><path d="M 306.222656 47.679688 L 294.796875 83.464844 C 294.679688 83.839844 294.710938 84.25 294.894531 84.601562 C 295.074219 84.953125 295.390625 85.21875 295.765625 85.339844 L 319.113281 92.792969 C 319.488281 92.910156 319.898438 92.878906 320.25 92.695312 C 320.601562 92.515625 320.867188 92.199219 320.988281 91.824219 L 332.410156 56.039062 C 332.699219 55.128906 332.617188 54.140625 332.175781 53.292969 L 324.605469 38.765625 C 324.226562 38.03125 323.324219 37.746094 322.589844 38.121094 L 308.003906 45.578125 C 307.152344 46.011719 306.511719 46.769531 306.222656 47.679688 Z M 306.222656 47.679688 " clip-rule="nonzero"/></clipPath><clipPath id="34893b7ccd"><path d="M 316 44 L 325 44 L 325 52 L 316 52 Z M 316 44 " clip-rule="nonzero"/></clipPath><clipPath id="752bdd3b42"><path d="M 318.09375 43.1875 L 325.386719 45.515625 L 323.078125 52.753906 L 315.785156 50.425781 Z M 318.09375 43.1875 " clip-rule="nonzero"/></clipPath><clipPath id="1c2667cc56"><path d="M 321.734375 44.347656 C 319.722656 43.707031 317.578125 44.808594 316.9375 46.804688 C 316.300781 48.804688 317.414062 50.945312 319.425781 51.585938 C 321.4375 52.226562 323.582031 51.128906 324.222656 49.128906 C 324.859375 47.132812 323.746094 44.992188 321.734375 44.347656 Z M 321.734375 44.347656 " clip-rule="nonzero"/></clipPath></defs><g fill="#ffffff" fill-opacity="1"><g transform="translate(2.884298, 77.256323)"><g><path d="M 40.421875 -2.046875 C 38.929688 -1.117188 37.117188 -0.40625 34.984375 0.09375 C 32.847656 0.59375 30.570312 0.84375 28.15625 0.84375 C 21.582031 0.84375 16.53125 -0.765625 13 -3.984375 C 9.476562 -7.210938 7.71875 -12.015625 7.71875 -18.390625 L 7.71875 -35.296875 L 0.375 -35.296875 L 0.375 -48.5 L 7.71875 -48.5 L 7.71875 -61.59375 L 25.359375 -61.59375 L 25.359375 -48.5 L 36.890625 -48.5 L 36.890625 -35.296875 L 25.359375 -35.296875 L 25.359375 -18.578125 C 25.359375 -16.785156 25.835938 -15.378906 26.796875 -14.359375 C 27.765625 -13.335938 29.050781 -12.828125 30.65625 -12.828125 C 32.695312 -12.828125 34.492188 -13.351562 36.046875 -14.40625 Z M 40.421875 -2.046875 "/></g></g></g><g fill="#ffffff" fill-opacity="1"><g transform="translate(37.348389, 77.256323)"><g><path d="M 58.625 -50.359375 L 58.625 0 L 41.8125 0 L 41.8125 -5.390625 C 39.945312 -3.347656 37.710938 -1.796875 35.109375 -0.734375 C 32.515625 0.316406 29.757812 0.84375 26.84375 0.84375 C 20.34375 0.84375 15.15625 -1.078125 11.28125 -4.921875 C 7.414062 -8.765625 5.484375 -14.523438 5.484375 -22.203125 L 5.484375 -50.359375 L 23.140625 -50.359375 L 23.140625 -25.078125 C 23.140625 -21.304688 23.847656 -18.550781 25.265625 -16.8125 C 26.691406 -15.082031 28.769531 -14.21875 31.5 -14.21875 C 34.28125 -14.21875 36.550781 -15.191406 38.3125 -17.140625 C 40.082031 -19.085938 40.96875 -22.078125 40.96875 -26.109375 L 40.96875 -50.359375 Z M 58.625 -50.359375 "/></g></g></g><g fill="#ffffff" fill-opacity="1"><g transform="translate(94.572251, 77.256323)"><g><path d="M 40.421875 -2.046875 C 38.929688 -1.117188 37.117188 -0.40625 34.984375 0.09375 C 32.847656 0.59375 30.570312 0.84375 28.15625 0.84375 C 21.582031 0.84375 16.53125 -0.765625 13 -3.984375 C 9.476562 -7.210938 7.71875 -12.015625 7.71875 -18.390625 L 7.71875 -35.296875 L 0.375 -35.296875 L 0.375 -48.5 L 7.71875 -48.5 L 7.71875 -61.59375 L 25.359375 -61.59375 L 25.359375 -48.5 L 36.890625 -48.5 L 36.890625 -35.296875 L 25.359375 -35.296875 L 25.359375 -18.578125 C 25.359375 -16.785156 25.835938 -15.378906 26.796875 -14.359375 C 27.765625 -13.335938 29.050781 -12.828125 30.65625 -12.828125 C 32.695312 -12.828125 34.492188 -13.351562 36.046875 -14.40625 Z M 40.421875 -2.046875 "/></g></g></g><g fill="#ffffff" fill-opacity="1"><g transform="translate(129.036345, 77.256323)"><g><path d="M 5.671875 -50.359375 L 23.3125 -50.359375 L 23.3125 0 L 5.671875 0 Z M 14.484375 -55.921875 C 11.265625 -55.921875 8.660156 -56.816406 6.671875 -58.609375 C 4.691406 -60.410156 3.703125 -62.644531 3.703125 -65.3125 C 3.703125 -67.976562 4.691406 -70.207031 6.671875 -72 C 8.660156 -73.800781 11.265625 -74.703125 14.484375 -74.703125 C 17.703125 -74.703125 20.300781 -73.847656 22.28125 -72.140625 C 24.269531 -70.441406 25.265625 -68.257812 25.265625 -65.59375 C 25.265625 -62.800781 24.269531 -60.488281 22.28125 -58.65625 C 20.300781 -56.832031 17.703125 -55.921875 14.484375 -55.921875 Z M 14.484375 -55.921875 "/></g></g></g><g fill="#ffffff" fill-opacity="1"><g transform="translate(151.052238, 77.256323)"><g><path d="M 57.140625 -25.078125 C 57.140625 -24.960938 57.046875 -23.507812 56.859375 -20.71875 L 20.25 -20.71875 C 21 -18.113281 22.441406 -16.113281 24.578125 -14.71875 C 26.710938 -13.332031 29.390625 -12.640625 32.609375 -12.640625 C 35.023438 -12.640625 37.113281 -12.976562 38.875 -13.65625 C 40.644531 -14.332031 42.425781 -15.445312 44.21875 -17 L 53.515625 -7.34375 C 48.617188 -1.882812 41.460938 0.84375 32.046875 0.84375 C 26.160156 0.84375 20.988281 -0.269531 16.53125 -2.5 C 12.070312 -4.738281 8.617188 -7.835938 6.171875 -11.796875 C 3.734375 -15.765625 2.515625 -20.253906 2.515625 -25.265625 C 2.515625 -30.222656 3.703125 -34.664062 6.078125 -38.59375 C 8.460938 -42.53125 11.757812 -45.613281 15.96875 -47.84375 C 20.1875 -50.070312 24.925781 -51.1875 30.1875 -51.1875 C 35.207031 -51.1875 39.757812 -50.148438 43.84375 -48.078125 C 47.9375 -46.003906 51.175781 -43 53.5625 -39.0625 C 55.945312 -35.132812 57.140625 -30.472656 57.140625 -25.078125 Z M 30.28125 -38.65625 C 27.5625 -38.65625 25.285156 -37.878906 23.453125 -36.328125 C 21.628906 -34.773438 20.46875 -32.671875 19.96875 -30.015625 L 40.59375 -30.015625 C 40.101562 -32.671875 38.941406 -34.773438 37.109375 -36.328125 C 35.285156 -37.878906 33.007812 -38.65625 30.28125 -38.65625 Z M 30.28125 -38.65625 "/></g></g></g><g fill="#ffffff" fill-opacity="1"><g transform="translate(203.631264, 77.256323)"><g><path d="M 38.46875 -51.1875 C 44.71875 -51.1875 49.75 -49.328125 53.5625 -45.609375 C 57.375 -41.898438 59.28125 -36.296875 59.28125 -28.796875 L 59.28125 0 L 41.625 0 L 41.625 -25.921875 C 41.625 -32.796875 38.867188 -36.234375 33.359375 -36.234375 C 30.316406 -36.234375 27.878906 -35.238281 26.046875 -33.25 C 24.222656 -31.269531 23.3125 -28.300781 23.3125 -24.34375 L 23.3125 0 L 5.671875 0 L 5.671875 -50.359375 L 22.484375 -50.359375 L 22.484375 -44.875 C 24.460938 -46.914062 26.8125 -48.476562 29.53125 -49.5625 C 32.257812 -50.644531 35.238281 -51.1875 38.46875 -51.1875 Z M 38.46875 -51.1875 "/></g></g></g><g fill="#ffffff" fill-opacity="1"><g transform="translate(261.226699, 77.256323)"><g><path d="M 59.1875 -68.9375 L 59.1875 0 L 42.359375 0 L 42.359375 -5.015625 C 39.078125 -1.109375 34.15625 0.84375 27.59375 0.84375 C 23.007812 0.84375 18.828125 -0.222656 15.046875 -2.359375 C 11.273438 -4.503906 8.285156 -7.554688 6.078125 -11.515625 C 3.878906 -15.484375 2.78125 -20.066406 2.78125 -25.265625 C 2.78125 -30.472656 3.878906 -35.039062 6.078125 -38.96875 C 8.285156 -42.90625 11.273438 -45.925781 15.046875 -48.03125 C 18.828125 -50.132812 23.007812 -51.1875 27.59375 -51.1875 C 33.601562 -51.1875 38.25 -49.453125 41.53125 -45.984375 L 41.53125 -68.9375 Z M 31.3125 -13.1875 C 34.34375 -13.1875 36.847656 -14.253906 38.828125 -16.390625 C 40.816406 -18.535156 41.8125 -21.492188 41.8125 -25.265625 C 41.8125 -28.984375 40.832031 -31.894531 38.875 -34 C 36.925781 -36.101562 34.40625 -37.15625 31.3125 -37.15625 C 28.21875 -37.15625 25.675781 -36.101562 23.6875 -34 C 21.707031 -31.894531 20.71875 -28.984375 20.71875 -25.265625 C 20.71875 -21.492188 21.707031 -18.535156 23.6875 -16.390625 C 25.675781 -14.253906 28.21875 -13.1875 31.3125 -13.1875 Z M 31.3125 -13.1875 "/></g></g></g><g fill="#ffffff" fill-opacity="1"><g transform="translate(319.007944, 77.256323)"><g><path d="M 27.125 -51.1875 C 35.488281 -51.1875 41.867188 -49.28125 46.265625 -45.46875 C 50.660156 -41.664062 52.859375 -35.832031 52.859375 -27.96875 L 52.859375 0 L 36.421875 0 L 36.421875 -6.5 C 33.878906 -1.601562 28.921875 0.84375 21.546875 0.84375 C 17.648438 0.84375 14.273438 0.160156 11.421875 -1.203125 C 8.578125 -2.566406 6.425781 -4.410156 4.96875 -6.734375 C 3.507812 -9.054688 2.78125 -11.703125 2.78125 -14.671875 C 2.78125 -19.441406 4.609375 -23.144531 8.265625 -25.78125 C 11.921875 -28.414062 17.554688 -29.734375 25.171875 -29.734375 L 35.21875 -29.734375 C 34.90625 -35.054688 31.34375 -37.71875 24.53125 -37.71875 C 22.113281 -37.71875 19.664062 -37.328125 17.1875 -36.546875 C 14.707031 -35.773438 12.601562 -34.710938 10.875 -33.359375 L 4.921875 -45.34375 C 7.710938 -47.195312 11.101562 -48.632812 15.09375 -49.65625 C 19.09375 -50.675781 23.101562 -51.1875 27.125 -51.1875 Z M 26.484375 -10.3125 C 28.523438 -10.3125 30.316406 -10.804688 31.859375 -11.796875 C 33.410156 -12.785156 34.53125 -14.242188 35.21875 -16.171875 L 35.21875 -20.53125 L 27.59375 -20.53125 C 22.445312 -20.53125 19.875 -18.828125 19.875 -15.421875 C 19.875 -13.867188 20.460938 -12.628906 21.640625 -11.703125 C 22.816406 -10.773438 24.429688 -10.3125 26.484375 -10.3125 Z M 26.484375 -10.3125 "/></g></g></g><g clip-path="url(#6b61426b9d)"><path fill="#ffffff" d="M 296.277344 36.097656 L 337.011719 36.097656 L 337.011719 77.949219 L 296.277344 77.949219 Z M 296.277344 36.097656 " fill-opacity="1" fill-rule="nonzero"/></g><g clip-path="url(#ca7a734ef0)"><g clip-path="url(#53cd4b2802)"><g clip-path="url(#2dde5b7857)"><path fill="#000000" d="M 294.34375 84.886719 L 310.835938 33.222656 L 337.023438 41.582031 L 320.535156 93.246094 Z M 294.34375 84.886719 " fill-opacity="1" fill-rule="nonzero"/></g></g></g><g clip-path="url(#34893b7ccd)"><g clip-path="url(#752bdd3b42)"><g clip-path="url(#1c2667cc56)"><path fill="#ffffff" d="M 318.09375 43.1875 L 325.386719 45.515625 L 323.078125 52.753906 L 315.785156 50.425781 Z M 318.09375 43.1875 " fill-opacity="1" fill-rule="nonzero"/></g></g></g></svg>