<svg xmlns="http://www.w3.org/2000/svg" xmlns:xlink="http://www.w3.org/1999/xlink" width="500" zoomAndPan="magnify" viewBox="0 0 375 88.499997" height="118" preserveAspectRatio="xMidYMid meet" version="1.0"><defs><g/><clipPath id="4f59b7279a"><path d="M 296.277344 36.097656 L 337.011719 36.097656 L 337.011719 77.882812 L 296.277344 77.882812 Z M 296.277344 36.097656 " clip-rule="nonzero"/></clipPath><clipPath id="ed5d908807"><path d="M 294 37 L 333 37 L 333 88.003906 L 294 88.003906 Z M 294 37 " clip-rule="nonzero"/></clipPath><clipPath id="e56bf079d7"><path d="M 294.25 84.847656 L 310.542969 33.796875 L 336.835938 42.191406 L 320.539062 93.238281 Z M 294.25 84.847656 " clip-rule="nonzero"/></clipPath><clipPath id="bf552ff248"><path d="M 306.226562 47.671875 L 294.804688 83.457031 C 294.683594 83.835938 294.71875 84.242188 294.902344 84.59375 C 295.082031 84.945312 295.394531 85.210938 295.773438 85.332031 L 319.121094 92.785156 C 319.496094 92.90625 319.90625 92.871094 320.257812 92.6875 C 320.609375 92.507812 320.875 92.195312 320.992188 91.816406 L 332.417969 56.03125 C 332.707031 55.121094 332.621094 54.132812 332.179688 53.285156 L 324.613281 38.757812 C 324.230469 38.023438 323.332031 37.738281 322.597656 38.113281 L 308.007812 45.570312 C 307.160156 46.003906 306.519531 46.761719 306.226562 47.671875 Z M 306.226562 47.671875 " clip-rule="nonzero"/></clipPath><clipPath id="5af9bd1189"><path d="M 316 44 L 325 44 L 325 52 L 316 52 Z M 316 44 " clip-rule="nonzero"/></clipPath><clipPath id="5f3fa0fe8d"><path d="M 318.09375 43.1875 L 325.386719 45.515625 L 323.078125 52.753906 L 315.785156 50.425781 Z M 318.09375 43.1875 " clip-rule="nonzero"/></clipPath><clipPath id="8129810854"><path d="M 321.734375 44.351562 C 319.722656 43.707031 317.578125 44.808594 316.9375 46.808594 C 316.300781 48.804688 317.414062 50.945312 319.425781 51.589844 C 321.4375 52.230469 323.582031 51.128906 324.222656 49.132812 C 324.859375 47.132812 323.746094 44.992188 321.734375 44.351562 Z M 321.734375 44.351562 " clip-rule="nonzero"/></clipPath></defs><g fill="#000000" fill-opacity="1"><g transform="translate(2.902284, 75.883781)"><g><path d="M 40.40625 -2.046875 C 38.914062 -1.117188 37.101562 -0.40625 34.96875 0.09375 C 32.832031 0.59375 30.554688 0.84375 28.140625 0.84375 C 21.578125 0.84375 16.53125 -0.765625 13 -3.984375 C 9.46875 -7.210938 7.703125 -12.015625 7.703125 -18.390625 L 7.703125 -35.296875 L 0.375 -35.296875 L 0.375 -48.484375 L 7.703125 -48.484375 L 7.703125 -61.59375 L 25.359375 -61.59375 L 25.359375 -48.484375 L 36.875 -48.484375 L 36.875 -35.296875 L 25.359375 -35.296875 L 25.359375 -18.578125 C 25.359375 -16.785156 25.835938 -15.375 26.796875 -14.34375 C 27.753906 -13.320312 29.039062 -12.8125 30.65625 -12.8125 C 32.695312 -12.8125 34.492188 -13.335938 36.046875 -14.390625 Z M 40.40625 -2.046875 "/></g></g></g><g fill="#000000" fill-opacity="1"><g transform="translate(37.363872, 75.883781)"><g><path d="M 58.609375 -50.34375 L 58.609375 0 L 41.796875 0 L 41.796875 -5.390625 C 39.941406 -3.347656 37.710938 -1.796875 35.109375 -0.734375 C 32.515625 0.316406 29.757812 0.84375 26.84375 0.84375 C 20.34375 0.84375 15.15625 -1.078125 11.28125 -4.921875 C 7.414062 -8.765625 5.484375 -14.523438 5.484375 -22.203125 L 5.484375 -50.34375 L 23.125 -50.34375 L 23.125 -25.078125 C 23.125 -21.304688 23.835938 -18.550781 25.265625 -16.8125 C 26.691406 -15.082031 28.765625 -14.21875 31.484375 -14.21875 C 34.273438 -14.21875 36.550781 -15.191406 38.3125 -17.140625 C 40.082031 -19.085938 40.96875 -22.078125 40.96875 -26.109375 L 40.96875 -50.34375 Z M 58.609375 -50.34375 "/></g></g></g><g fill="#000000" fill-opacity="1"><g transform="translate(94.583858, 75.883781)"><g><path d="M 40.40625 -2.046875 C 38.914062 -1.117188 37.101562 -0.40625 34.96875 0.09375 C 32.832031 0.59375 30.554688 0.84375 28.140625 0.84375 C 21.578125 0.84375 16.53125 -0.765625 13 -3.984375 C 9.46875 -7.210938 7.703125 -12.015625 7.703125 -18.390625 L 7.703125 -35.296875 L 0.375 -35.296875 L 0.375 -48.484375 L 7.703125 -48.484375 L 7.703125 -61.59375 L 25.359375 -61.59375 L 25.359375 -48.484375 L 36.875 -48.484375 L 36.875 -35.296875 L 25.359375 -35.296875 L 25.359375 -18.578125 C 25.359375 -16.785156 25.835938 -15.375 26.796875 -14.34375 C 27.753906 -13.320312 29.039062 -12.8125 30.65625 -12.8125 C 32.695312 -12.8125 34.492188 -13.335938 36.046875 -14.390625 Z M 40.40625 -2.046875 "/></g></g></g><g fill="#000000" fill-opacity="1"><g transform="translate(129.045453, 75.883781)"><g><path d="M 5.671875 -50.34375 L 23.3125 -50.34375 L 23.3125 0 L 5.671875 0 Z M 14.484375 -55.921875 C 11.265625 -55.921875 8.664062 -56.816406 6.6875 -58.609375 C 4.707031 -60.410156 3.71875 -62.640625 3.71875 -65.296875 C 3.71875 -67.960938 4.707031 -70.191406 6.6875 -71.984375 C 8.664062 -73.785156 11.265625 -74.6875 14.484375 -74.6875 C 17.710938 -74.6875 20.316406 -73.832031 22.296875 -72.125 C 24.273438 -70.425781 25.265625 -68.242188 25.265625 -65.578125 C 25.265625 -62.796875 24.273438 -60.488281 22.296875 -58.65625 C 20.316406 -56.832031 17.710938 -55.921875 14.484375 -55.921875 Z M 14.484375 -55.921875 "/></g></g></g><g fill="#000000" fill-opacity="1"><g transform="translate(151.059587, 75.883781)"><g><path d="M 57.125 -25.078125 C 57.125 -24.953125 57.03125 -23.5 56.84375 -20.71875 L 20.25 -20.71875 C 20.988281 -18.113281 22.425781 -16.113281 24.5625 -14.71875 C 26.707031 -13.332031 29.390625 -12.640625 32.609375 -12.640625 C 35.023438 -12.640625 37.113281 -12.976562 38.875 -13.65625 C 40.632812 -14.332031 42.414062 -15.445312 44.21875 -17 L 53.5 -7.34375 C 48.613281 -1.882812 41.460938 0.84375 32.046875 0.84375 C 26.160156 0.84375 20.988281 -0.269531 16.53125 -2.5 C 12.070312 -4.738281 8.617188 -7.835938 6.171875 -11.796875 C 3.734375 -15.753906 2.515625 -20.242188 2.515625 -25.265625 C 2.515625 -30.222656 3.703125 -34.664062 6.078125 -38.59375 C 8.460938 -42.53125 11.757812 -45.613281 15.96875 -47.84375 C 20.1875 -50.070312 24.925781 -51.1875 30.1875 -51.1875 C 35.207031 -51.1875 39.757812 -50.144531 43.84375 -48.0625 C 47.925781 -45.988281 51.160156 -42.984375 53.546875 -39.046875 C 55.929688 -35.117188 57.125 -30.460938 57.125 -25.078125 Z M 30.28125 -38.640625 C 27.550781 -38.640625 25.273438 -37.863281 23.453125 -36.3125 C 21.628906 -34.769531 20.46875 -32.664062 19.96875 -30 L 40.59375 -30 C 40.09375 -32.664062 38.929688 -34.769531 37.109375 -36.3125 C 35.285156 -37.863281 33.007812 -38.640625 30.28125 -38.640625 Z M 30.28125 -38.640625 "/></g></g></g><g fill="#000000" fill-opacity="1"><g transform="translate(203.634987, 75.883781)"><g><path d="M 38.453125 -51.1875 C 44.710938 -51.1875 49.742188 -49.328125 53.546875 -45.609375 C 57.359375 -41.890625 59.265625 -36.285156 59.265625 -28.796875 L 59.265625 0 L 41.609375 0 L 41.609375 -25.921875 C 41.609375 -32.796875 38.851562 -36.234375 33.34375 -36.234375 C 30.3125 -36.234375 27.878906 -35.238281 26.046875 -33.25 C 24.222656 -31.269531 23.3125 -28.300781 23.3125 -24.34375 L 23.3125 0 L 5.671875 0 L 5.671875 -50.34375 L 22.484375 -50.34375 L 22.484375 -44.859375 C 24.460938 -46.910156 26.8125 -48.476562 29.53125 -49.5625 C 32.257812 -50.644531 35.234375 -51.1875 38.453125 -51.1875 Z M 38.453125 -51.1875 "/></g></g></g><g fill="#000000" fill-opacity="1"><g transform="translate(261.22654, 75.883781)"><g><path d="M 59.171875 -68.921875 L 59.171875 0 L 42.359375 0 L 42.359375 -5.015625 C 39.078125 -1.109375 34.15625 0.84375 27.59375 0.84375 C 23.007812 0.84375 18.828125 -0.222656 15.046875 -2.359375 C 11.265625 -4.503906 8.273438 -7.554688 6.078125 -11.515625 C 3.878906 -15.484375 2.78125 -20.066406 2.78125 -25.265625 C 2.78125 -30.460938 3.878906 -35.023438 6.078125 -38.953125 C 8.273438 -42.890625 11.265625 -45.910156 15.046875 -48.015625 C 18.828125 -50.128906 23.007812 -51.1875 27.59375 -51.1875 C 33.59375 -51.1875 38.234375 -49.453125 41.515625 -45.984375 L 41.515625 -68.921875 Z M 31.296875 -13.1875 C 34.335938 -13.1875 36.847656 -14.253906 38.828125 -16.390625 C 40.804688 -18.523438 41.796875 -21.484375 41.796875 -25.265625 C 41.796875 -28.984375 40.820312 -31.894531 38.875 -34 C 36.925781 -36.101562 34.398438 -37.15625 31.296875 -37.15625 C 28.203125 -37.15625 25.664062 -36.101562 23.6875 -34 C 21.707031 -31.894531 20.71875 -28.984375 20.71875 -25.265625 C 20.71875 -21.484375 21.707031 -18.523438 23.6875 -16.390625 C 25.664062 -14.253906 28.203125 -13.1875 31.296875 -13.1875 Z M 31.296875 -13.1875 "/></g></g></g><g fill="#000000" fill-opacity="1"><g transform="translate(319.003867, 75.883781)"><g><path d="M 27.125 -51.1875 C 35.488281 -51.1875 41.867188 -49.28125 46.265625 -45.46875 C 50.660156 -41.65625 52.859375 -35.816406 52.859375 -27.953125 L 52.859375 0 L 36.40625 0 L 36.40625 -6.5 C 33.875 -1.601562 28.921875 0.84375 21.546875 0.84375 C 17.648438 0.84375 14.273438 0.160156 11.421875 -1.203125 C 8.578125 -2.566406 6.425781 -4.410156 4.96875 -6.734375 C 3.507812 -9.054688 2.78125 -11.703125 2.78125 -14.671875 C 2.78125 -19.441406 4.609375 -23.140625 8.265625 -25.765625 C 11.921875 -28.398438 17.554688 -29.71875 25.171875 -29.71875 L 35.203125 -29.71875 C 34.890625 -35.050781 31.328125 -37.71875 24.515625 -37.71875 C 22.109375 -37.71875 19.664062 -37.328125 17.1875 -36.546875 C 14.707031 -35.773438 12.601562 -34.707031 10.875 -33.34375 L 4.921875 -45.328125 C 7.710938 -47.191406 11.101562 -48.632812 15.09375 -49.65625 C 19.09375 -50.675781 23.101562 -51.1875 27.125 -51.1875 Z M 26.46875 -10.3125 C 28.519531 -10.3125 30.316406 -10.804688 31.859375 -11.796875 C 33.410156 -12.785156 34.523438 -14.238281 35.203125 -16.15625 L 35.203125 -20.53125 L 27.59375 -20.53125 C 22.445312 -20.53125 19.875 -18.828125 19.875 -15.421875 C 19.875 -13.867188 20.460938 -12.628906 21.640625 -11.703125 C 22.816406 -10.773438 24.425781 -10.3125 26.46875 -10.3125 Z M 26.46875 -10.3125 "/></g></g></g><g clip-path="url(#4f59b7279a)"><path fill="#000000" d="M 296.277344 36.097656 L 337.011719 36.097656 L 337.011719 77.949219 L 296.277344 77.949219 Z M 296.277344 36.097656 " fill-opacity="1" fill-rule="nonzero"/></g><g clip-path="url(#ed5d908807)"><g clip-path="url(#e56bf079d7)"><g clip-path="url(#bf552ff248)"><path fill="#ffffff" d="M 294.351562 84.878906 L 310.839844 33.214844 L 337.03125 41.574219 L 320.539062 93.238281 Z M 294.351562 84.878906 " fill-opacity="1" fill-rule="nonzero"/></g></g></g><g clip-path="url(#5af9bd1189)"><g clip-path="url(#5f3fa0fe8d)"><g clip-path="url(#8129810854)"><path fill="#000000" d="M 318.09375 43.1875 L 325.386719 45.515625 L 323.078125 52.753906 L 315.785156 50.425781 Z M 318.09375 43.1875 " fill-opacity="1" fill-rule="nonzero"/></g></g></g></svg>