<svg xmlns="http://www.w3.org/2000/svg" xmlns:xlink="http://www.w3.org/1999/xlink" width="500" zoomAndPan="magnify" viewBox="0 0 375 374.999991" height="500" preserveAspectRatio="xMidYMid meet" version="1.0"><defs><g/><clipPath id="e5fdf4823b"><path d="M 272.046875 181.175781 L 304.484375 181.175781 L 304.484375 214.605469 L 272.046875 214.605469 Z M 272.046875 181.175781 " clip-rule="nonzero"/></clipPath><clipPath id="db1dadafb3"><path d="M 270 182 L 301 182 L 301 227 L 270 227 Z M 270 182 " clip-rule="nonzero"/></clipPath><clipPath id="908853d8b4"><path d="M 270.507812 220.230469 L 283.523438 179.460938 L 304.316406 186.097656 L 291.300781 226.867188 Z M 270.507812 220.230469 " clip-rule="nonzero"/></clipPath><clipPath id="a3a120f730"><path d="M 279.917969 190.757812 L 270.964844 218.800781 C 270.714844 219.589844 271.148438 220.433594 271.9375 220.6875 L 289.871094 226.410156 C 290.660156 226.664062 291.503906 226.226562 291.757812 225.4375 L 300.710938 197.394531 C 301 196.480469 300.917969 195.484375 300.476562 194.632812 L 294.777344 183.585938 C 294.394531 182.847656 293.492188 182.558594 292.753906 182.9375 L 281.707031 188.640625 C 280.851562 189.082031 280.210938 189.84375 279.917969 190.757812 Z M 279.917969 190.757812 " clip-rule="nonzero"/></clipPath><clipPath id="1eb4a0a804"><path d="M 288 187 L 295 187 L 295 194 L 288 194 Z M 288 187 " clip-rule="nonzero"/></clipPath><clipPath id="0a2f7e9dc1"><path d="M 289.429688 186.855469 L 295.21875 188.703125 L 293.371094 194.492188 L 287.582031 192.644531 Z M 289.429688 186.855469 " clip-rule="nonzero"/></clipPath><clipPath id="9496f6692a"><path d="M 292.324219 187.777344 C 290.726562 187.269531 289.015625 188.152344 288.507812 189.75 C 287.996094 191.347656 288.878906 193.058594 290.476562 193.570312 C 292.074219 194.078125 293.785156 193.195312 294.296875 191.597656 C 294.804688 190 293.925781 188.289062 292.324219 187.777344 Z M 292.324219 187.777344 " clip-rule="nonzero"/></clipPath></defs><rect x="-37.5" width="450" fill="#ffffff" y="-37.499999" height="449.999989" fill-opacity="1"/><rect x="-37.5" width="450" fill="#ffffff" y="-37.499999" height="449.999989" fill-opacity="1"/><g fill="#000000" fill-opacity="1"><g transform="translate(37.744809, 213.005168)"><g><path d="M 32.328125 -1.640625 C 31.140625 -0.890625 29.691406 -0.316406 27.984375 0.078125 C 26.273438 0.472656 24.453125 0.671875 22.515625 0.671875 C 17.265625 0.671875 13.226562 -0.613281 10.40625 -3.1875 C 7.582031 -5.769531 6.171875 -9.613281 6.171875 -14.71875 L 6.171875 -28.234375 L 0.296875 -28.234375 L 0.296875 -38.796875 L 6.171875 -38.796875 L 6.171875 -49.265625 L 20.28125 -49.265625 L 20.28125 -38.796875 L 29.5 -38.796875 L 29.5 -28.234375 L 20.28125 -28.234375 L 20.28125 -14.859375 C 20.28125 -13.421875 20.664062 -12.289062 21.4375 -11.46875 C 22.207031 -10.65625 23.234375 -10.25 24.515625 -10.25 C 26.148438 -10.25 27.585938 -10.671875 28.828125 -11.515625 Z M 32.328125 -1.640625 "/></g></g></g><g fill="#000000" fill-opacity="1"><g transform="translate(65.313309, 213.005168)"><g><path d="M 46.890625 -40.28125 L 46.890625 0 L 33.4375 0 L 33.4375 -4.3125 C 31.957031 -2.675781 30.175781 -1.4375 28.09375 -0.59375 C 26.007812 0.25 23.800781 0.671875 21.46875 0.671875 C 16.269531 0.671875 12.125 -0.863281 9.03125 -3.9375 C 5.9375 -7.007812 4.390625 -11.617188 4.390625 -17.765625 L 4.390625 -40.28125 L 18.5 -40.28125 L 18.5 -20.0625 C 18.5 -17.039062 19.066406 -14.835938 20.203125 -13.453125 C 21.347656 -12.066406 23.007812 -11.375 25.1875 -11.375 C 27.414062 -11.375 29.234375 -12.148438 30.640625 -13.703125 C 32.054688 -15.265625 32.765625 -17.65625 32.765625 -20.875 L 32.765625 -40.28125 Z M 46.890625 -40.28125 "/></g></g></g><g fill="#000000" fill-opacity="1"><g transform="translate(111.088016, 213.005168)"><g><path d="M 32.328125 -1.640625 C 31.140625 -0.890625 29.691406 -0.316406 27.984375 0.078125 C 26.273438 0.472656 24.453125 0.671875 22.515625 0.671875 C 17.265625 0.671875 13.226562 -0.613281 10.40625 -3.1875 C 7.582031 -5.769531 6.171875 -9.613281 6.171875 -14.71875 L 6.171875 -28.234375 L 0.296875 -28.234375 L 0.296875 -38.796875 L 6.171875 -38.796875 L 6.171875 -49.265625 L 20.28125 -49.265625 L 20.28125 -38.796875 L 29.5 -38.796875 L 29.5 -28.234375 L 20.28125 -28.234375 L 20.28125 -14.859375 C 20.28125 -13.421875 20.664062 -12.289062 21.4375 -11.46875 C 22.207031 -10.65625 23.234375 -10.25 24.515625 -10.25 C 26.148438 -10.25 27.585938 -10.671875 28.828125 -11.515625 Z M 32.328125 -1.640625 "/></g></g></g><g fill="#000000" fill-opacity="1"><g transform="translate(138.65652, 213.005168)"><g><path d="M 4.53125 -40.28125 L 18.65625 -40.28125 L 18.65625 0 L 4.53125 0 Z M 11.59375 -44.734375 C 9.019531 -44.734375 6.941406 -45.453125 5.359375 -46.890625 C 3.773438 -48.328125 2.984375 -50.109375 2.984375 -52.234375 C 2.984375 -54.367188 3.773438 -56.15625 5.359375 -57.59375 C 6.941406 -59.03125 9.019531 -59.75 11.59375 -59.75 C 14.175781 -59.75 16.257812 -59.066406 17.84375 -57.703125 C 19.425781 -56.335938 20.21875 -54.59375 20.21875 -52.46875 C 20.21875 -50.238281 19.425781 -48.390625 17.84375 -46.921875 C 16.257812 -45.460938 14.175781 -44.734375 11.59375 -44.734375 Z M 11.59375 -44.734375 "/></g></g></g><g fill="#000000" fill-opacity="1"><g transform="translate(156.267334, 213.005168)"><g><path d="M 45.703125 -20.0625 C 45.703125 -19.96875 45.628906 -18.804688 45.484375 -16.578125 L 16.203125 -16.578125 C 16.796875 -14.492188 17.945312 -12.894531 19.65625 -11.78125 C 21.363281 -10.664062 23.503906 -10.109375 26.078125 -10.109375 C 28.015625 -10.109375 29.6875 -10.378906 31.09375 -10.921875 C 32.507812 -11.460938 33.9375 -12.351562 35.375 -13.59375 L 42.796875 -5.875 C 38.890625 -1.507812 33.171875 0.671875 25.640625 0.671875 C 20.929688 0.671875 16.789062 -0.21875 13.21875 -2 C 9.65625 -3.789062 6.894531 -6.269531 4.9375 -9.4375 C 2.976562 -12.601562 2 -16.195312 2 -20.21875 C 2 -24.175781 2.953125 -27.726562 4.859375 -30.875 C 6.773438 -34.019531 9.414062 -36.484375 12.78125 -38.265625 C 16.144531 -40.054688 19.9375 -40.953125 24.15625 -40.953125 C 28.164062 -40.953125 31.804688 -40.117188 35.078125 -38.453125 C 38.347656 -36.796875 40.9375 -34.394531 42.84375 -31.25 C 44.75 -28.101562 45.703125 -24.375 45.703125 -20.0625 Z M 24.21875 -30.90625 C 22.039062 -30.90625 20.222656 -30.285156 18.765625 -29.046875 C 17.304688 -27.816406 16.378906 -26.132812 15.984375 -24 L 32.46875 -24 C 32.070312 -26.132812 31.144531 -27.816406 29.6875 -29.046875 C 28.226562 -30.285156 26.40625 -30.90625 24.21875 -30.90625 Z M 24.21875 -30.90625 "/></g></g></g><g fill="#000000" fill-opacity="1"><g transform="translate(198.326477, 213.005168)"><g><path d="M 30.765625 -40.953125 C 35.765625 -40.953125 39.785156 -39.460938 42.828125 -36.484375 C 45.878906 -33.515625 47.40625 -29.03125 47.40625 -23.03125 L 47.40625 0 L 33.296875 0 L 33.296875 -20.734375 C 33.296875 -26.234375 31.085938 -28.984375 26.671875 -28.984375 C 24.242188 -28.984375 22.300781 -28.1875 20.84375 -26.59375 C 19.382812 -25.007812 18.65625 -22.632812 18.65625 -19.46875 L 18.65625 0 L 4.53125 0 L 4.53125 -40.28125 L 17.984375 -40.28125 L 17.984375 -35.890625 C 19.566406 -37.523438 21.445312 -38.773438 23.625 -39.640625 C 25.8125 -40.515625 28.191406 -40.953125 30.765625 -40.953125 Z M 30.765625 -40.953125 "/></g></g></g><g fill="#000000" fill-opacity="1"><g transform="translate(244.398429, 213.005168)"><g><path d="M 47.34375 -55.140625 L 47.34375 0 L 33.890625 0 L 33.890625 -4.015625 C 31.265625 -0.890625 27.328125 0.671875 22.078125 0.671875 C 18.410156 0.671875 15.0625 -0.179688 12.03125 -1.890625 C 9.007812 -3.597656 6.617188 -6.035156 4.859375 -9.203125 C 3.109375 -12.378906 2.234375 -16.050781 2.234375 -20.21875 C 2.234375 -24.375 3.109375 -28.023438 4.859375 -31.171875 C 6.617188 -34.316406 9.007812 -36.734375 12.03125 -38.421875 C 15.0625 -40.109375 18.410156 -40.953125 22.078125 -40.953125 C 26.878906 -40.953125 30.59375 -39.5625 33.21875 -36.78125 L 33.21875 -55.140625 Z M 25.046875 -10.546875 C 27.472656 -10.546875 29.476562 -11.398438 31.0625 -13.109375 C 32.644531 -14.828125 33.4375 -17.195312 33.4375 -20.21875 C 33.4375 -23.1875 32.65625 -25.507812 31.09375 -27.1875 C 29.539062 -28.875 27.523438 -29.71875 25.046875 -29.71875 C 22.566406 -29.71875 20.535156 -28.875 18.953125 -27.1875 C 17.367188 -25.507812 16.578125 -23.1875 16.578125 -20.21875 C 16.578125 -17.195312 17.367188 -14.828125 18.953125 -13.109375 C 20.535156 -11.398438 22.566406 -10.546875 25.046875 -10.546875 Z M 25.046875 -10.546875 "/></g></g></g><g fill="#000000" fill-opacity="1"><g transform="translate(290.618998, 213.005168)"><g><path d="M 21.703125 -40.953125 C 28.390625 -40.953125 33.488281 -39.425781 37 -36.375 C 40.519531 -33.332031 42.28125 -28.664062 42.28125 -22.375 L 42.28125 0 L 29.125 0 L 29.125 -5.203125 C 27.09375 -1.285156 23.128906 0.671875 17.234375 0.671875 C 14.117188 0.671875 11.421875 0.128906 9.140625 -0.953125 C 6.859375 -2.046875 5.132812 -3.519531 3.96875 -5.375 C 2.8125 -7.238281 2.234375 -9.359375 2.234375 -11.734375 C 2.234375 -15.554688 3.691406 -18.519531 6.609375 -20.625 C 9.535156 -22.726562 14.046875 -23.78125 20.140625 -23.78125 L 28.171875 -23.78125 C 27.921875 -28.039062 25.070312 -30.171875 19.625 -30.171875 C 17.6875 -30.171875 15.726562 -29.859375 13.75 -29.234375 C 11.769531 -28.617188 10.082031 -27.765625 8.6875 -26.671875 L 3.9375 -36.265625 C 6.164062 -37.753906 8.878906 -38.90625 12.078125 -39.71875 C 15.273438 -40.539062 18.484375 -40.953125 21.703125 -40.953125 Z M 21.171875 -8.25 C 22.804688 -8.25 24.242188 -8.644531 25.484375 -9.4375 C 26.722656 -10.226562 27.617188 -11.394531 28.171875 -12.9375 L 28.171875 -16.421875 L 22.078125 -16.421875 C 17.960938 -16.421875 15.90625 -15.054688 15.90625 -12.328125 C 15.90625 -11.097656 16.375 -10.109375 17.3125 -9.359375 C 18.257812 -8.617188 19.546875 -8.25 21.171875 -8.25 Z M 21.171875 -8.25 "/></g></g></g><g fill="#ffffff" fill-opacity="1"><g transform="translate(337.685373, 176.584145)"><g><path d="M 3.703125 -9.1875 L 0.0625 -9.1875 L 0.0625 -11.828125 L 10.671875 -11.828125 L 10.671875 -9.1875 L 7.046875 -9.1875 L 7.046875 0 L 3.703125 0 Z M 3.703125 -9.1875 "/></g></g></g><g fill="#ffffff" fill-opacity="1"><g transform="translate(348.421477, 176.584145)"><g><path d="M 11.875 0 L 11.828125 -6.265625 L 8.796875 -1.171875 L 7.296875 -1.171875 L 4.28125 -6.109375 L 4.28125 0 L 1.1875 0 L 1.1875 -11.828125 L 3.9375 -11.828125 L 8.09375 -5 L 12.15625 -11.828125 L 14.90625 -11.828125 L 14.9375 0 Z M 11.875 0 "/></g></g></g><g clip-path="url(#e5fdf4823b)"><path fill="#000000" d="M 272.046875 181.175781 L 304.484375 181.175781 L 304.484375 214.628906 L 272.046875 214.628906 Z M 272.046875 181.175781 " fill-opacity="1" fill-rule="nonzero"/></g><g clip-path="url(#db1dadafb3)"><g clip-path="url(#908853d8b4)"><g clip-path="url(#a3a120f730)"><path fill="#ffffff" d="M 270.507812 220.230469 L 283.679688 178.972656 L 304.472656 185.609375 L 291.300781 226.867188 Z M 270.507812 220.230469 " fill-opacity="1" fill-rule="nonzero"/></g></g></g><g clip-path="url(#1eb4a0a804)"><g clip-path="url(#0a2f7e9dc1)"><g clip-path="url(#9496f6692a)"><path fill="#000000" d="M 289.429688 186.855469 L 295.21875 188.703125 L 293.371094 194.492188 L 287.582031 192.644531 Z M 289.429688 186.855469 " fill-opacity="1" fill-rule="nonzero"/></g></g></g></svg>